<?xml version="1.0" encoding="UTF-8"?>
<svg viewBox="0 0 24 24" version="1.1" xmlns="http://www.w3.org/2000/svg" xmlns:xlink="http://www.w3.org/1999/xlink">
  <path
    d="M16.7220485,15.5869644 L19.3251518,18.1900677 C20.9919055,16.2620015 22,13.7488542 22,11.0001833 C22,8.29584275 21.0240501,5.81943566 19.4052078,3.90390947 L16.7986822,6.5104595 C17.7606987,7.75109528 18.333313,9.3087406 18.333313,11.0001833 C18.333313,12.735993 17.7301429,14.3310018 16.7220485,15.5869644 Z"
    fill-opacity="0.5"></path>
  <path
    d="M15.4897972,16.7989267 C14.2491125,17.7608209 12.6915038,18.3334352 11.0000611,18.3334352 C6.94994861,18.3334352 3.66668704,15.0501614 3.66668704,11.0000611 C3.66668704,6.94994861 6.94994861,3.66668704 11.0000611,3.66668704 C12.7358708,3.66668704 14.3308796,4.26978372 15.5868421,5.27786599 L18.1899455,2.67476264 C16.2618792,1.00811893 13.7487319,0 11.0000611,0 C4.92489847,0 0,4.92489847 0,11.0000611 C0,17.0752726 4.92489847,22.0001222 11.0000611,22.0001222 C13.704365,22.0001222 16.1807232,21.0242946 18.0963228,19.4054523 L15.4897972,16.7989267 Z">
  </path>
</svg>