<?xml version="1.0" encoding="UTF-8"?>
<svg width="835px" height="212px" viewBox="0 0 835 212" version="1.1" xmlns="http://www.w3.org/2000/svg"
    xmlns:xlink="http://www.w3.org/1999/xlink">
    <title>Raleway Extra Light (Fit)</title>
    <g id="Raleway-Extra-Light-(Fit)" stroke="none" stroke-width="1" fill="none" fill-rule="evenodd"
        fill-opacity="0.87">
        <path
            d="M91.864,157.72 C98.584,157.72 104.848,156.328 110.656,153.544 C116.464,150.76 121.528,146.944 125.848,142.096 C130.168,137.248 133.528,131.728 135.928,125.536 C138.328,119.344 139.528,112.792 139.528,105.88 C139.528,99.544 138.376,93.304 136.072,87.16 C133.768,81.016 130.528,75.448 126.352,70.456 C122.176,65.464 117.16,61.48 111.304,58.504 C105.448,55.528 98.968,54.04 91.864,54.04 C85.144,54.04 78.88,55.456 73.072,58.288 C67.264,61.12 62.176,64.96 57.808,69.808 C53.44,74.656 50.056,80.176 47.656,86.368 C45.256,92.56 44.056,99.064 44.056,105.88 C44.056,112.408 45.208,118.768 47.512,124.96 C49.816,131.152 53.08,136.696 57.304,141.592 C61.528,146.488 66.568,150.4 72.424,153.328 C78.28,156.256 84.76,157.72 91.864,157.72 Z M91.864,152.968 C85.624,152.968 79.888,151.672 74.656,149.08 C69.424,146.488 64.912,142.984 61.12,138.568 C57.328,134.152 54.376,129.136 52.264,123.52 C50.152,117.904 49.096,112.024 49.096,105.88 C49.096,100.024 50.128,94.312 52.192,88.744 C54.256,83.176 57.16,78.136 60.904,73.624 C64.648,69.112 69.136,65.512 74.368,62.824 C79.6,60.136 85.432,58.792 91.864,58.792 C97.912,58.792 103.552,60.088 108.784,62.68 C114.016,65.272 118.552,68.776 122.392,73.192 C126.232,77.608 129.208,82.624 131.32,88.24 C133.432,93.856 134.488,99.736 134.488,105.88 C134.488,111.736 133.48,117.448 131.464,123.016 C129.448,128.584 126.568,133.624 122.824,138.136 C119.08,142.648 114.568,146.248 109.288,148.936 C104.008,151.624 98.2,152.968 91.864,152.968 Z M202.312,157 L202.312,125.32 L224.488,102.712 L267.112,157 L273.016,157 L227.944,99.544 L271,54.76 L264.808,54.76 L202.312,119.128 L202.312,54.76 L197.272,54.76 L197.272,157 L202.312,157 Z M351.208,157 L351.208,59.368 L389.512,59.368 L389.512,54.76 L307.864,54.76 L307.864,59.368 L346.168,59.368 L346.168,157 L351.208,157 Z M428.68,157 L443.8,121.72 L495.064,121.72 L510.184,157 L515.512,157 L471.592,54.76 L467.272,54.76 L423.208,157 L428.68,157 Z M493.48,117.4 L445.24,117.4 L469.432,61.096 L493.48,117.4 Z M569.8,157 L569.8,64.12 L643.528,157 L648.712,157 L648.712,54.76 L643.672,54.76 L643.672,149.08 L568.792,54.76 L564.76,54.76 L564.76,157 L569.8,157 Z M703.144,157 L718.264,121.72 L769.528,121.72 L784.648,157 L789.976,157 L746.056,54.76 L741.736,54.76 L697.672,157 L703.144,157 Z M767.944,117.4 L719.704,117.4 L743.896,61.096 L767.944,117.4 Z"
            id="OKTANA" fill="#000000" fill-rule="nonzero"></path>
    </g>
</svg>